<svg width="24" height="24" viewBox="0 0 24 24" fill="none" xmlns="http://www.w3.org/2000/svg">
<g clip-path="url(#clip0_15_31)">
<path d="M12 21.925H11.75C11.6667 21.925 11.5917 21.9084 11.525 21.875C9.34167 21.1917 7.54167 19.8374 6.125 17.812C4.70833 15.7867 4 13.5494 4 11.1V6.37502C4 5.95836 4.121 5.58336 4.363 5.25002C4.605 4.91669 4.91733 4.67502 5.3 4.52502L11.3 2.27502C11.5333 2.19169 11.7667 2.15002 12 2.15002C12.2333 2.15002 12.4667 2.19169 12.7 2.27502L18.7 4.52502C19.0833 4.67502 19.396 4.91669 19.638 5.25002C19.88 5.58336 20.0007 5.95836 20 6.37502V11.1C20 13.55 19.2917 15.7877 17.875 17.813C16.4583 19.8384 14.6583 21.1924 12.475 21.875C12.3917 21.9084 12.2333 21.925 12 21.925Z" fill="black"/>
</g>
<defs>
<clipPath id="clip0_15_31">
<rect width="24" height="24" fill="white"/>
</clipPath>
</defs>
</svg>
